<?xml version="1.0" standalone="no"?><!DOCTYPE svg PUBLIC "-//W3C//DTD SVG 1.1//EN" "http://www.w3.org/Graphics/SVG/1.1/DTD/svg11.dtd"><svg t="1700067767072" class="icon" viewBox="0 0 1228 1024" version="1.1" xmlns="http://www.w3.org/2000/svg" p-id="7312" xmlns:xlink="http://www.w3.org/1999/xlink" width="239.84375" height="200"><path d="M1051.307 143.36c78.916 0 143.36 64.375 143.36 143.36v546.133c0 78.848-64.376 143.292-143.36 143.292H177.493c-78.916 0-143.36-64.375-143.36-143.36V177.493c0-78.848 64.376-143.36 143.36-143.36h341.812L628.53 143.36h422.776zM177.493 102.4c-41.233 0-75.093 33.86-75.093 75.093v655.36c0 41.165 33.86 75.025 75.093 75.025h873.814c41.233 0 75.093-33.86 75.093-75.093V286.652c0-41.233-33.86-75.094-75.093-75.094H600.269L491.042 102.4H177.493z" fill="#2c2c2c" p-id="7313"></path></svg>